<svg xmlns="http://www.w3.org/2000/svg" width="58.492" height="58.492" viewBox="0 0 58.492 58.492"><defs><style>.a{fill:#fff;}.b{fill:#231f20;}.c{fill:#be1e2d;}.d{fill:#61aa45;}</style></defs><g transform="translate(0 0)"><path class="a" d="M83.492,54.246A29.246,29.246,0,1,0,54.246,83.492,29.246,29.246,0,0,0,83.492,54.246Z" transform="translate(-25 -25)"/><g transform="translate(4.107 4.07)"><g transform="translate(11.356 43.907)"><path class="b" d="M278.237,808.289a1.73,1.73,0,0,1-.356.436,1.013,1.013,0,0,1-.364.207,1.071,1.071,0,0,1-.219.041.815.815,0,0,1-.2-.009.889.889,0,0,1-.2-.061,1.8,1.8,0,0,1-.21-.111l-.551-.335,1.285-2.113.422.256c.08.049.15.093.209.134a1.206,1.206,0,0,1,.157.124.82.82,0,0,1,.117.139,1.022,1.022,0,0,1,.095.177.889.889,0,0,1,.052.521A1.738,1.738,0,0,1,278.237,808.289Zm-.292-.136a2.119,2.119,0,0,0,.2-.424.82.82,0,0,0,.033-.377.764.764,0,0,0-.044-.163.5.5,0,0,0-.077-.127.8.8,0,0,0-.111-.1,1.4,1.4,0,0,0-.147-.1l-.252-.154-1.032,1.7.252.154c.056.034.11.064.164.091a.715.715,0,0,0,.165.06.514.514,0,0,0,.169.01.47.47,0,0,0,.174-.057,1.18,1.18,0,0,0,.273-.209A1.622,1.622,0,0,0,277.944,808.153Z" transform="translate(-276.14 -806.213)"/><path class="b" d="M318.116,830.5l1.082-2.223.26.126-1.082,2.223Z" transform="translate(-315.531 -826.793)"/><path class="b" d="M342.366,840.334l.891-2.306,1.261.487-.125.214-.945-.365-.292.757.79.305-.092.238-.79-.305-.326.844,1.016.392-.093.239Z" transform="translate(-338.288 -835.946)"/><path class="b" d="M389,850.315l-.646-.179-.6,2.143-.274-.076.594-2.143-.638-.177.066-.239,1.577.438Z" transform="translate(-380.588 -846.846)"/><path class="b" d="M418.514,861.536l.473-2.427.283.055-.473,2.427Z" transform="translate(-409.748 -855.729)"/><path class="b" d="M446.389,863.051l-.666-.076-.251,2.21-.283-.033.251-2.21-.659-.074.028-.247,1.626.185Z" transform="translate(-434.398 -859.025)"/><path class="b" d="M482.658,868.517l.082-2.471.288.009-.082,2.472Z" transform="translate(-469.943 -862.239)"/><path class="b" d="M506.247,868l-.277-.746-.921.052-.195.772-.3.017.685-2.515.385-.022.956,2.423Zm-.812-2.17-.32,1.231.766-.043Z" transform="translate(-490.492 -861.786)"/><path class="b" d="M549.962,860.955l-1.044-1.352q-.07-.09-.132-.175l-.112-.154c-.033-.046-.062-.087-.085-.122a.816.816,0,0,1-.051-.083c.005.019.014.049.023.091s.023.1.037.156.029.125.045.195.03.142.043.212l.264,1.411-.3.053-.43-2.435.337-.06,1.084,1.411c.041.051.079.1.116.159s.069.1.1.148.052.08.071.11.029.048.033.055-.006-.026-.018-.07-.025-.1-.041-.17-.033-.147-.052-.234-.036-.174-.052-.262l-.244-1.323.288-.051.43,2.436Z" transform="translate(-531.466 -855.126)"/><path class="b" d="M595.618,850.547a.67.67,0,0,1,.012.343.737.737,0,0,1-.167.325.953.953,0,0,1-.209.183,1.145,1.145,0,0,1-.279.122,1.548,1.548,0,0,1-.415.069,1.428,1.428,0,0,1-.409-.053l.058-.258a1.086,1.086,0,0,0,.349.064,1.153,1.153,0,0,0,.348-.052.858.858,0,0,0,.211-.089.481.481,0,0,0,.134-.129.422.422,0,0,0,.067-.389q-.095-.314-.558-.314h-.26a2.089,2.089,0,0,1-.285-.015.564.564,0,0,1-.464-.409.709.709,0,0,1-.028-.294.656.656,0,0,1,.091-.26.727.727,0,0,1,.2-.213.989.989,0,0,1,.3-.145,1.313,1.313,0,0,1,.783.013l-.063.241c-.068-.02-.131-.034-.187-.045a1.291,1.291,0,0,0-.159-.019.708.708,0,0,0-.145.006,1.015,1.015,0,0,0-.146.033.557.557,0,0,0-.318.208.37.37,0,0,0-.038.324.32.32,0,0,0,.161.2.87.87,0,0,0,.349.063l.3,0a1.287,1.287,0,0,1,.282.026.665.665,0,0,1,.207.086.646.646,0,0,1,.172.161A.658.658,0,0,1,595.618,850.547Z" transform="translate(-574.164 -846.223)"/><path class="b" d="M644.3,870.484a.246.246,0,0,1,0,.19.225.225,0,0,1-.129.129.232.232,0,0,1-.189,0,.24.24,0,0,1-.131-.137.234.234,0,0,1,.131-.309.244.244,0,0,1,.189,0A.229.229,0,0,1,644.3,870.484Z" transform="translate(-621.191 -866.264)"/><path class="b" d="M660.492,824.293a1.274,1.274,0,0,1-.522.492.958.958,0,0,1-.791.035,1.056,1.056,0,0,1-.393-.273,1.878,1.878,0,0,1-.3-.431,1.616,1.616,0,0,1-.161-.488,1.272,1.272,0,0,1,.009-.459.99.99,0,0,1,.173-.387.916.916,0,0,1,.326-.273,1.071,1.071,0,0,1,.325-.107.923.923,0,0,1,.322,0l-.055.242a.718.718,0,0,0-.488.074.621.621,0,0,0-.279.263.739.739,0,0,0-.071.393,1.2,1.2,0,0,0,.057.286,2.356,2.356,0,0,0,.147.346,2.034,2.034,0,0,0,.151.257,1.036,1.036,0,0,0,.157.173.7.7,0,0,0,.4.186.718.718,0,0,0,.4-.076.808.808,0,0,0,.206-.148.945.945,0,0,0,.153-.213Z" transform="translate(-634.78 -821.269)"/><path class="b" d="M698.52,806.014l-.614-.507-.771.507.22.766-.25.164-.671-2.519.322-.212,2.043,1.616Zm-1.792-1.47.341,1.226.641-.422Z" transform="translate(-670.556 -804.214)"/></g><g transform="translate(0 0)"><path class="b" d="M96.453,519.889l-2.12.482-.347.074c-.1.022-.211.042-.319.058.119.006.223.012.313.02s.2.019.328.034l2.293.3.106.687-2.02.9c-.1.042-.2.089-.327.139s-.23.093-.335.129c.111-.017.224-.03.336-.04s.243-.028.367-.039l2.118-.186.124.8-4.072.246-.16-1.033,1.928-.837.186-.078c.054-.023.1-.042.15-.059l.137-.051c.045-.017.092-.033.141-.048-.206,0-.431-.018-.675-.044l-2.076-.234-.16-1.028,3.958-.979Z" transform="translate(-92.33 -492.746)"/><path class="b" d="M95.812,459.973l-.973.252-.043,1.191.953.321-.031.853-4.023-1.479.032-.881,4.117-1.133Zm-1.659.426q-.035.011-.127.033l-.213.054c-.08.021-.164.04-.25.058s-.165.034-.236.047l-.724.138c.023.009.064.021.122.037l.2.054q.113.03.235.066t.22.064c.147.044.274.083.382.119s.229.077.364.124Z" transform="translate(-91.695 -436.439)"/><path class="b" d="M99.954,402.311l-.192.066-.163.057c-.053.019-.11.037-.169.056l-.2.064-.5.16c-.132.043-.239.083-.321.118a1.232,1.232,0,0,0-.189.1.385.385,0,0,0-.1.091.416.416,0,0,0-.06.119l1.663.33-.156.785-3.984-.791.294-1.484a1.345,1.345,0,0,1,.178-.463,1.06,1.06,0,0,1,.728-.487,1.328,1.328,0,0,1,.5.012,1.282,1.282,0,0,1,.407.152,1.166,1.166,0,0,1,.309.257.951.951,0,0,1,.182.332.773.773,0,0,1,.026.366.685.685,0,0,1,.1-.079c.028-.016.061-.034.1-.054a2.293,2.293,0,0,1,.212-.1l.31-.12.353-.132q.183-.068.353-.127l.3-.106c.089-.032.158-.055.2-.07Zm-2.824-.423a.466.466,0,0,0-.544.19.747.747,0,0,0-.08.178,2.354,2.354,0,0,0-.067.264l-.057.287,1.078.214.053-.27a1.957,1.957,0,0,0,.049-.4.448.448,0,0,0-.061-.233A.532.532,0,0,0,97.131,401.888Z" transform="translate(-95.345 -381.931)"/><path class="b" d="M120.514,338.543a1.66,1.66,0,0,1,.094.58,1.916,1.916,0,0,1-.129.61,1.674,1.674,0,0,1-.988,1.049,2.1,2.1,0,0,1-1.535-.046,2.654,2.654,0,0,1-1.088-.7,1.783,1.783,0,0,1-.424-.849,1.713,1.713,0,0,1,.082-.936,1.94,1.94,0,0,1,.284-.515,1.253,1.253,0,0,1,.375-.337l.393.538a1.075,1.075,0,0,0-.439.529.865.865,0,0,0-.049.4.765.765,0,0,0,.137.369,1.9,1.9,0,0,0,.9.577,4.611,4.611,0,0,0,.64.2,1.251,1.251,0,0,0,.438.022.832.832,0,0,0,.7-.575,1.044,1.044,0,0,0,.066-.346,1.192,1.192,0,0,0-.071-.4Z" transform="translate(-114.891 -322.237)"/><path class="b" d="M138.072,281.686l-1.575-.895-.577,1.017,1.576.894-.4.707-3.532-2,.4-.706,1.373.779.577-1.017-1.373-.779.41-.722,3.532,2Z" transform="translate(-130.984 -267.393)"/><path class="b" d="M204.276,215.194l-2.924-2.819.592-.614,2.924,2.819Z" transform="translate(-194.6 -204.331)"/><path class="b" d="M236.13,173.864a1.292,1.292,0,0,1,.261.511,1.257,1.257,0,0,1,.011.549,1.538,1.538,0,0,1-.235.549,2.3,2.3,0,0,1-.474.511,2.726,2.726,0,0,1-.614.375,2.839,2.839,0,0,1-.692.214l-.166-.686a3.671,3.671,0,0,0,.575-.159,1.771,1.771,0,0,0,.5-.292q.553-.45.2-.881-.24-.295-.745-.072l-.426.189a1.815,1.815,0,0,1-.514.155.92.92,0,0,1-.431-.048,1.149,1.149,0,0,1-.523-.373,1.222,1.222,0,0,1-.241-.463,1.143,1.143,0,0,1-.02-.5,1.354,1.354,0,0,1,.2-.491,1.837,1.837,0,0,1,.4-.443,2.49,2.49,0,0,1,.635-.377,2.117,2.117,0,0,1,.675-.161l.069.7a2.45,2.45,0,0,0-.539.129,1.454,1.454,0,0,0-.39.228.613.613,0,0,0-.235.36.417.417,0,0,0,.09.36.323.323,0,0,0,.231.132.863.863,0,0,0,.376-.1l.465-.206a1.464,1.464,0,0,1,.874-.139A1.142,1.142,0,0,1,236.13,173.864Z" transform="translate(-223.902 -166.994)"/><path class="b" d="M326.46,117.98l-1.237-1.171c-.1-.1-.206-.195-.307-.294s-.2-.193-.292-.284-.175-.173-.248-.248-.122-.131-.16-.174c.035.065.073.14.112.225l.124.271q.063.138.123.275c.04.091.076.176.109.255l.685,1.6-.73.3-1.551-3.754.837-.346,1.339,1.2q.266.244.486.479t.364.415q-.055-.1-.123-.237c-.045-.089-.09-.18-.135-.273s-.088-.183-.128-.27-.073-.163-.1-.227l-.65-1.527.719-.3,1.551,3.753Z" transform="translate(-308.841 -112.496)"/><path class="b" d="M391.724,99.057c.021.1.037.174.049.235s.02.113.026.156a1.209,1.209,0,0,1,.009.121.979.979,0,0,1-.009.125.966.966,0,0,1-.078.281,1.048,1.048,0,0,1-.2.3,1.481,1.481,0,0,1-.359.271,2.02,2.02,0,0,1-.541.194,2.1,2.1,0,0,1-.811.039,1.044,1.044,0,0,1-.579-.288.83.83,0,0,1-.115-.13.955.955,0,0,1-.087-.148,1.4,1.4,0,0,1-.071-.185c-.021-.069-.043-.151-.064-.246l-.611-2.762.816-.18.577,2.607a2.075,2.075,0,0,0,.082.293.572.572,0,0,0,.091.166.566.566,0,0,0,.6.154.675.675,0,0,0,.393-.216.507.507,0,0,0,.11-.38.756.756,0,0,0-.017-.129l-.613-2.767.81-.179Z" transform="translate(-370.019 -96.062)"/><path class="b" d="M452.445,91.79l-.968.066.23,3.376-.828.056-.23-3.375-.992.067-.046-.676,2.921-.2Z" transform="translate(-427.575 -91.104)"/><path class="b" d="M509.062,95.723c-.034-.069-.063-.131-.087-.183s-.05-.105-.076-.156-.05-.105-.075-.162-.053-.121-.087-.195q-.128-.285-.216-.475c-.058-.126-.11-.228-.154-.305a1.271,1.271,0,0,0-.118-.177.373.373,0,0,0-.1-.087.39.39,0,0,0-.125-.045l-.137,1.689-.8-.065.329-4.048,1.508.123a1.336,1.336,0,0,1,.48.124,1.056,1.056,0,0,1,.567.668,1.34,1.34,0,0,1,.045.494,1.288,1.288,0,0,1-.1.422,1.156,1.156,0,0,1-.221.337.957.957,0,0,1-.308.218.779.779,0,0,1-.361.067.7.7,0,0,1,.09.09c.019.025.041.056.065.093a2.265,2.265,0,0,1,.119.2q.071.132.155.294c.056.108.113.22.172.337s.114.228.166.336.1.2.14.289.073.151.093.2Zm.1-2.854a.467.467,0,0,0-.251-.519.752.752,0,0,0-.186-.059,2.318,2.318,0,0,0-.27-.036l-.291-.024-.089,1.1.274.022a1.981,1.981,0,0,0,.4,0,.45.45,0,0,0,.224-.087A.53.53,0,0,0,509.159,92.87Z" transform="translate(-481.511 -91.489)"/><path class="b" d="M562.309,102.777l.815-3.979.836.172-.816,3.979Z" transform="translate(-533.333 -98.324)"/><path class="b" d="M601.975,106.15l-.923-.3-1.039,3.22-.789-.255,1.038-3.221-.945-.3.209-.645,2.786.9Z" transform="translate(-567.975 -103.814)"/><path class="b" d="M633.548,128.315l1.662-3.706.779.349-1.662,3.706Z" transform="translate(-600.186 -122.546)"/><path class="b" d="M670.007,150.794a2.8,2.8,0,0,1-.823.886,1.575,1.575,0,0,1-.964.274,1.529,1.529,0,0,1-.391-.074,1.882,1.882,0,0,1-.4-.2,1.951,1.951,0,0,1-.587-.522,1.37,1.37,0,0,1-.234-.661,2.385,2.385,0,0,1,.4-1.528,2.629,2.629,0,0,1,.814-.856,1.633,1.633,0,0,1,.967-.273,1.532,1.532,0,0,1,.417.083,1.96,1.96,0,0,1,.4.192,1.781,1.781,0,0,1,.543.505,1.524,1.524,0,0,1,.252.641,1.859,1.859,0,0,1-.047.734A2.869,2.869,0,0,1,670.007,150.794Zm-.812-.476a4.919,4.919,0,0,0,.265-.476,2.187,2.187,0,0,0,.142-.379.825.825,0,0,0,.023-.182.65.65,0,0,0-.032-.215.791.791,0,0,0-.11-.22.735.735,0,0,0-.216-.2.745.745,0,0,0-.369-.115.654.654,0,0,0-.355.085,2.413,2.413,0,0,0-.759.836q-.559.9-.386,1.308a.8.8,0,0,0,.338.375.651.651,0,0,0,.706.032A2.452,2.452,0,0,0,669.194,150.318Z" transform="translate(-631.202 -144.35)"/><path class="b" d="M712.051,184.441l.516-1.623q.063-.2.13-.4c.044-.135.088-.264.129-.386s.079-.233.115-.332.065-.166.087-.22c-.044.061-.1.126-.155.2l-.19.23c-.064.078-.129.155-.193.23s-.126.145-.183.209l-1.137,1.311-.589-.525,2.7-3.031.676.6-.5,1.73q-.1.345-.22.646t-.215.509q.069-.095.159-.214c.061-.079.123-.159.187-.24s.127-.159.187-.232.114-.137.161-.19l1.092-1.25.579.518-2.7,3.031Z" transform="translate(-672.477 -174.62)"/><path class="b" d="M781.622,277.376l1.8-1.212.3-.194c.09-.058.183-.114.277-.169q-.17.057-.3.094t-.318.085l-2.246.549-.347-.6,1.561-1.564q.111-.111.255-.248c.093-.089.181-.169.266-.241-.1.057-.2.11-.3.159s-.216.113-.328.168l-1.909.935-.4-.7,3.711-1.694.521.907-1.5,1.474c-.054.054-.1.1-.145.141s-.082.076-.119.109l-.11.1c-.036.032-.074.064-.113.1q.289-.105.645-.2l2.022-.528.518.9-3.341,2.338Z" transform="translate(-737.555 -261.555)"/><path class="b" d="M824.62,355.458a2.786,2.786,0,0,1-1.2.156,1.585,1.585,0,0,1-.918-.406,1.564,1.564,0,0,1-.253-.307,2.272,2.272,0,0,1-.3-1.182,1.37,1.37,0,0,1,.243-.657,2.384,2.384,0,0,1,1.283-.92,2.633,2.633,0,0,1,1.174-.138,1.638,1.638,0,0,1,.918.409,1.519,1.519,0,0,1,.267.33,2,2,0,0,1,.188.406,1.79,1.79,0,0,1,.094.735,1.509,1.509,0,0,1-.217.654,1.838,1.838,0,0,1-.505.535A2.841,2.841,0,0,1,824.62,355.458Zm-.319-.885a4.87,4.87,0,0,0,.507-.2,2.152,2.152,0,0,0,.352-.2.774.774,0,0,0,.134-.125.647.647,0,0,0,.114-.185.816.816,0,0,0,.056-.241.73.73,0,0,0-.041-.288.745.745,0,0,0-.21-.325.647.647,0,0,0-.328-.162,2.418,2.418,0,0,0-1.118.157q-1,.334-1.134.759a.8.8,0,0,0,.02.5.651.651,0,0,0,.522.477A2.46,2.46,0,0,0,824.3,354.573Z" transform="translate(-776.987 -335.924)"/><path class="b" d="M835.4,419.695l1.436-.915q.178-.115.359-.227l.347-.214q.165-.1.3-.18l.208-.113c-.072.018-.154.036-.246.054l-.293.055c-.1.018-.2.036-.3.053l-.274.043-1.714.277-.115-.781,4.018-.595.132.9-1.494,1.006q-.3.2-.582.355t-.491.253l.259-.062c.1-.022.2-.044.3-.064s.2-.041.293-.058.176-.032.245-.042l1.639-.26.114.769-4.018.595Z" transform="translate(-789.341 -397.077)"/><path class="b" d="M845.427,481.34l.016-.97-3.383-.055.013-.83,3.384.055.016-.993.678.011-.047,2.927Z" transform="translate(-795.859 -454.692)"/><path class="b" d="M835.274,529.759l1.792.265.171-1.156-1.792-.265.119-.8,4.018.593-.119.8-1.561-.23-.17,1.156,1.561.23-.121.821-4.018-.593Z" transform="translate(-789.378 -500.911)"/></g></g><g transform="translate(6.265 35.97)"><path class="b" d="M134.859,622.543a.182.182,0,0,1-.114-.04,23.942,23.942,0,0,1-7.986-11.733.183.183,0,0,1,.35-.107,23.577,23.577,0,0,0,7.865,11.554.183.183,0,0,1-.114.326Z" transform="translate(-126.751 -610.452)"/><path class="b" d="M740.262,621.226a.183.183,0,0,1-.115-.325,23.577,23.577,0,0,0,7.8-11.561.183.183,0,1,1,.35.106,23.942,23.942,0,0,1-7.919,11.74A.182.182,0,0,1,740.262,621.226Z" transform="translate(-702.317 -609.209)"/></g><g transform="translate(12.926 14.699)"><g transform="translate(0 0)"><path class="c" d="M397.582,521.172a.425.425,0,0,1-.226-.065l-6.3-3.961a.424.424,0,1,1,.452-.718l6.08,3.825,6.363-3.65a.424.424,0,1,1,.422.736l-6.584,3.777A.424.424,0,0,1,397.582,521.172Z" transform="translate(-381.262 -500.808)"/><path class="c" d="M258.285,289.446a.422.422,0,0,1-.106-.014c-2.3-.594-4.573-1.188-6.846-1.783q-1.718.439-3.449.878-1.78.452-3.554.9a.424.424,0,0,1-.4-.721l2.119-1.986-10.922-6.92a.424.424,0,0,1,.041-.74l1.929-.942-.915-2.931a.424.424,0,0,1,.554-.523l3.77,1.419c-.153-.888-.319-1.78-.48-2.65a.424.424,0,0,1,.622-.449c2.008,1.11,3.913,2.155,5.8,3.177-.506-1.915-1.651-6.264-2.268-8.735a.424.424,0,0,1,.6-.482c1.186.593,2.389,1.173,3.561,1.735.473-.9.944-1.808,1.4-2.693q.525-1.015,1.055-2.033a.424.424,0,0,1,.366-.227.429.429,0,0,1,.376.21q.807,1.378,1.614,2.743.7,1.195,1.41,2.394.867-.443,1.741-.893c.7-.361,1.4-.722,2.1-1.076a.424.424,0,0,1,.594.516c-.909,2.639-1.839,5.376-2.9,8.538,1.961-1.081,3.838-2.107,5.711-3.12a.424.424,0,0,1,.621.441c-.143.881-.3,1.772-.467,2.648l3.8-1.46a.424.424,0,0,1,.557.522l-.915,2.931,1.929.942a.424.424,0,0,1,.041.74l-10.922,6.92,2.119,1.986a.424.424,0,0,1-.29.734Zm-22.058-9.95L246.97,286.3a.424.424,0,0,1,.063.668l-1.315,1.233,1.956-.5q1.78-.452,3.554-.9a.424.424,0,0,1,.212,0c1.776.464,3.553.929,5.341,1.393l-1.305-1.224a.424.424,0,0,1,.063-.668l10.743-6.807-1.574-.769a.424.424,0,0,1-.219-.508l.762-2.443-3.694,1.417a.424.424,0,0,1-.569-.474c.155-.831.312-1.677.458-2.519-1.921,1.042-3.857,2.1-5.895,3.23a.424.424,0,0,1-.607-.506c1.076-3.2,2.011-5.959,2.912-8.583l-1.162.6c-.7.361-1.4.722-2.1,1.076a.424.424,0,0,1-.559-.164q-.805-1.375-1.611-2.737-.614-1.04-1.228-2.084-.351.676-.7,1.35c-.521,1.007-1.059,2.048-1.6,3.062a.425.425,0,0,1-.558.183c-1.021-.49-2.069-.993-3.114-1.508.857,3.372,2.276,8.722,2.292,8.781a.424.424,0,0,1-.612.482c-1.921-1.039-3.852-2.095-5.88-3.214.153.831.305,1.675.441,2.51a.424.424,0,0,1-.568.465l-3.646-1.373.764,2.449a.424.424,0,0,1-.219.508Z" transform="translate(-234.934 -263.731)"/></g><path class="d" d="M467.682,407.418v-12.06a1.973,1.973,0,0,0,1.4-2.06c-.035-1.25-.246-6.06-.246-6.06s-.013-.167-.224-.167c-.231,0-.225.167-.225.167v3.447h0v1.552a.329.329,0,0,1-.333.352.334.334,0,0,1-.359-.314v-1.557h0v-3.482s.006-.167-.231-.167-.215.167-.215.167,0,2.729,0,3.372h0c0-.056,0-.164,0-.308,0,.836,0,1.748,0,1.957,0,.336-.212.354-.333.352s-.34-.027-.34-.352V390.7h0v-3.463s.01-.167-.215-.167-.231.167-.231.167v3.391h0v1.648a.334.334,0,0,1-.359.314.329.329,0,0,1-.333-.352v-1.548c0-.005,0-.008,0-.009V390.6h0v-3.362s.006-.167-.224-.167c-.212,0-.224.167-.224.167s-.212,4.809-.246,6.06a1.973,1.973,0,0,0,1.4,2.06v12.06s-.058,1.154.77,1.154S467.682,407.418,467.682,407.418Z" transform="translate(-450.592 -379.478)"/></g></g></svg>