<svg xmlns="http://www.w3.org/2000/svg" width="421.911" height="487.183" viewBox="0 0 421.911 487.183"><defs><style>.a{fill:rgba(255,255,255,0.2);}</style></defs><g transform="translate(-170.869 -87.669)"><path class="a" d="M1244.722,87.669l.679,1.175V87.669Z" transform="translate(-652.621 0)"/><path class="a" d="M170.869,1327.828h.679l-.679-1.176Z" transform="translate(0 -752.976)"/><path class="a" d="M558.3,87.669h-1.359l17.238,29.859h-33.8L523.142,87.669H451.463l-16.9,29.271-16.9-29.271H416.3l-16.9,29.272L382.5,87.669h-1.358l17.24,29.86h-33.8L347.346,87.669h-1.359l17.239,29.859h-33.8l-17.24-29.86H240.508l-16.9,29.272-16.9-29.271h-1.359l-16.9,29.272-16.9-29.272h-.68v1.176L187.43,117.53H170.869v1.177H187.43l-16.561,28.685v2.354l.34-.59h34.48l16.9,29.272h-51.72V179.6h17.24l17.24,29.861-16.9,29.272-17.58-30.45v2.353l16.561,28.685H170.869V240.5H187.43l-16.561,28.685v2.354l.34-.59h34.48l16.9,29.271h-51.72V301.4h17.24l17.24,29.861-16.9,29.271-17.58-30.449v2.353l16.561,28.685H170.869V362.3H187.43l-16.561,28.685v2.354l.34-.59h34.48l16.9,29.271h-51.72V423.2h17.24l17.24,29.861-16.9,29.272-17.58-30.449v2.353l16.561,28.685H170.869v1.177H187.43l-16.561,28.685v2.354l.34-.59h34.48l16.9,29.271h-51.72v1.177h17.24l17.239,29.859h1.359l-17.238-29.859h33.8l8.9,15.41,8.343,14.45h71.678l11.66-20.2,5.24-9.077,16.9,29.272h1.36l16.9-29.271,16.9,29.271H382.5l-17.239-29.859h33.8l17.24,29.86h1.358l-17.239-29.86h33.8l17.24,29.86h71.678l9.5-16.453,7.4-12.82,16.9,29.273H558.3l16.9-29.272,16.9,29.272h.679v-1.178l-16.56-28.683h16.56v-1.177H576.22l16.56-28.683v-2.354l-.339.587h-34.48l-16.9-29.272H592.78v-1.177H575.54L558.3,453.056l16.9-29.272,17.579,30.448v-2.354L576.22,423.2h16.56v-1.177H576.22l16.56-28.683v-2.354l-.339.587h-34.48l-16.9-29.272H592.78V361.12H575.54L558.3,331.26l16.9-29.272,17.579,30.447v-2.353L576.22,301.4h16.56v-1.177H576.22l16.56-28.683v-2.354l-.339.587h-34.48l-16.9-29.272H592.78v-1.177H575.54L558.3,209.464l16.9-29.272L592.78,210.64v-2.353L576.22,179.6h16.56v-1.177H576.22l16.56-28.683V147.39l-.339.587h-34.48l-16.9-29.272H592.78v-1.177H575.54Zm-36.18.588,16.9,29.272H470.743l16.9-29.273Zm-52.4,91.346h34.141l-16.9,29.272H452.483l-16.9-29.273h34.14Zm-16.9-31.037,16.9-29.272,34.14,59.132h-33.8ZM365.265,301.4h33.8l17.24,29.861-16.9,29.271Zm33.121,59.72h-33.8l-17.24-29.859,16.9-29.272Zm-33.121-60.9,16.9-29.273h34.479l16.9,29.271h-68.28Zm-1.359,0h0l-17.24,29.86-16.9-29.272,17.24-29.861h33.8Zm-17.92,31.037,17.24,29.859h-33.8l-17.24-29.86,11.66-20.2,5.24-9.076ZM364.02,362.3h34.366l-16.9,29.272h-34.48L330.1,362.3Zm35.724,0h0l17.24-29.86,16.9,29.271-17.24,29.861h-33.8Zm17.919-31.037L400.424,301.4h33.8l17.24,29.86-16.9,29.272Zm0-60.9,16.9-29.273,16.9,29.273,17.239,29.86H434.9Zm-1.019-.588h-33.8l16.9-29.272h0l17.24-29.86,16.9,29.271ZM399.4,238.737,365.265,179.6h33.8l17.24,29.861Zm-1.019.588h-33.8l-17.24-29.859,16.9-29.272Zm0,1.177-16.9,29.272h-34.48L330.1,240.5h68.281Zm-52.4,29.861L332.052,294.5l-2.966,5.138-16.9-29.272-17.24-29.86h33.8Zm-52.059-31.037h-34.14l16.9-29.272h34.48l16.9,29.271Zm-.34,1.177,17.24,29.86-16.9,29.272L259.787,240.5Zm.679,60.9h0l17.24-29.86,16.9,29.272-17.24,29.86h-33.8Zm16.9,30.45,16.9,29.272h-68.28l16.9-29.272ZM293.587,362.3l17.24,29.86-16.9,29.272L259.787,362.3Zm.679,60.9h0l17.24-29.86,16.9,29.272-17.24,29.86h-33.8Zm17.919-31.037-17.24-29.86h33.8l17.24,29.86-13.934,24.134-2.966,5.137Zm34.82.588h33.8l-16.9,29.273h0l-17.24,29.86-16.9-29.272Zm17.241,31.038,34.14,59.132h-33.8l-17.24-29.859Zm1.019-.588h33.8l17.24,29.861-16.9,29.272Zm0-1.177,16.9-29.273h34.479l16.9,29.271h-68.28Zm52.4-29.862,16.9-29.273,16.9,29.273,17.239,29.86H434.9Zm51.72,31.037h34.48l-16.9,29.273H452.483l-16.9-29.273Zm.679-1.177-17.24-29.86,16.9-29.272,34.14,59.132Zm-.679-60.9h0l-17.24,29.86-16.9-29.272,17.24-29.861h33.8Zm-16.9-30.449-16.9-29.273h68.28l-16.9,29.272Zm17.579-30.449-17.24-29.86,16.9-29.272,34.14,59.132Zm-.679-60.9h0l-17.24,29.86-16.9-29.272,17.24-29.861h33.8Zm-17.92-29.861-16.9,29.272-16.9-29.271L400.424,179.6h33.8ZM399.4,178.427H365.265l16.9-29.273h34.479l16.9,29.272Zm-35.5,0h0l-17.24,29.86-16.9-29.272,17.24-29.861h33.8Zm-17.92,31.037,17.24,29.859h-33.8l-17.24-29.86,11.66-20.2,5.24-9.076Zm-34.82-.589h-33.8l16.9-29.272h0l17.24-29.86,16.9,29.272Zm-17.24-31.037-34.14-59.132h33.8l17.24,29.861Zm-1.019.588h-33.8l-17.239-29.86,16.9-29.272ZM258.767,179.6h34.141l-16.9,29.272h-34.48l-3.7-6.415-13.2-22.858h34.14Zm-17.239,30.449h33.8l-16.9,29.272h0l-17.24,29.86-16.9-29.271Zm17.24,31.038,34.14,59.132h-33.8l-17.239-29.86Zm0,60.309h34.141l-16.9,29.272h-34.48l-3.7-6.415-13.2-22.858h34.14Zm-17.239,30.449h33.8l-16.9,29.272h0l-17.24,29.86-16.9-29.271Zm17.24,31.038,34.14,59.132h-33.8l-17.239-29.86Zm0,60.309h34.141l-16.9,29.273h-34.48l-3.7-6.415-13.2-22.858h34.14Zm-17.239,30.449h33.8l-16.9,29.272h0l-17.24,29.86-16.9-29.271Zm17.24,31.038,34.14,59.132h-33.8l-17.239-29.86Zm1.019-.588h33.8l17.24,29.86-16.9,29.272Zm0-1.177,16.9-29.272h34.48l16.9,29.272h-68.28Zm52.4-29.861,11.66-20.2,5.24-9.077,16.9,29.273,17.24,29.859h-33.8Zm51.835,31.036h34.366l-16.9,29.272h-34.48l-16.9-29.272Zm35.724,0h0l17.24-29.86,16.9,29.271-17.24,29.861h-33.8Zm17.919-31.037L400.424,423.2h33.8l17.24,29.86-16.9,29.273Zm34.82.588h33.8l-16.9,29.272h0l-17.24,29.86-16.9-29.272Zm17.24,31.038,34.14,59.132h-33.8l-17.24-29.86Zm1.019-.588h33.8l17.24,29.86-16.9,29.272Zm0-1.177,16.9-29.272h34.479l16.9,29.272H470.743Zm17.579-30.449,16.9-29.273h0l17.24-29.86,16.9,29.272-17.24,29.86Zm16.561-31.038L470.743,362.3h33.8l17.24,29.86Zm-34.139-60.309,16.9-29.272h34.479l16.9,29.272H470.743Zm17.579-30.449,16.9-29.272h0l17.24-29.86,16.9,29.272-17.24,29.86Zm16.561-31.037L470.743,240.5h33.8l17.24,29.86Zm-34.139-60.309,16.9-29.272h34.479l16.9,29.271H470.743Zm17.579-30.45,16.9-29.272h0l17.24-29.86,16.9,29.272-17.24,29.86Zm16.561-31.037-34.14-59.132h33.8l17.24,29.86Zm-52.4-89.581h33.8l-16.9,29.273h0l-17.24,29.86-16.9-29.272Zm-17.919,31.037,16.9,29.273,17.239,29.86H434.9l-17.241-29.86Zm-34.82-.588h0l17.24-29.861,16.9,29.271-17.24,29.861h-33.8Zm-35.724,0h34.366l-16.9,29.272h-34.48l-16.9-29.272Zm-18.034,29.862L332.052,172.7l-2.966,5.138-16.9-29.272-17.24-29.861h33.8Zm-34.82-60.309,16.9,29.271h-68.28l16.9-29.272Zm-69.638,0h33.8l-16.9,29.272h0l-17.24,29.861-16.9-29.272Zm-35.839,59.722h-33.8l16.9-29.272h0l17.24-29.86,16.9,29.271Zm1.02.589,16.9-29.273,16.9,29.272,17.239,29.86h-33.8ZM189.469,179.6h33.8l8.9,15.409,8.343,14.451-16.9,29.272-16.9-29.271Zm16.22,90.17h-33.8l16.9-29.272h0l17.24-29.86,16.9,29.271Zm1.02.589,16.9-29.273,16.9,29.272,17.239,29.86h-33.8ZM189.469,301.4h33.8l8.9,15.409,8.343,14.451-16.9,29.272-16.9-29.271Zm16.22,90.169h-33.8l16.9-29.272h0l17.24-29.86,16.9,29.271Zm1.02.589,16.9-29.273,16.9,29.272,17.239,29.86h-33.8ZM189.469,423.2h33.8l8.9,15.409,8.343,14.451-16.9,29.273-16.9-29.272Zm16.22,90.17h-33.8l16.9-29.272h0l17.24-29.86,16.9,29.271Zm1.02.589,16.9-29.273,16.9,29.272,17.239,29.86h-33.8Zm34.82,60.309-3.7-6.415-13.2-22.858h68.281l-16.9,29.273Zm69.639,0h-33.8l16.9-29.273h0l17.24-29.86,16.9,29.272Zm17.919-31.037-16.9-29.272-17.24-29.86h33.8l17.24,29.86-13.934,24.134Zm34.82.589h0l-17.24,29.86-16.9-29.272,17.24-29.861h33.8Zm35.5,0H365.265l16.9-29.273h34.479l16.9,29.271Zm18.259-29.861,16.9-29.273,16.9,29.273,17.239,29.86H434.9Zm34.82,60.31-16.9-29.273h68.28l-16.9,29.273Zm69.639,0h-33.8l16.9-29.273h0l17.24-29.86,16.9,29.272Zm69.64-59.72-16.9,29.273-17.239,29.86-16.9-29.273,17.24-29.86Zm-34.82-.588-16.9,29.272-16.9-29.272-17.24-29.86h33.8Zm17.24-31.039h-33.8l-17.24-29.86,9.5-16.453,7.4-12.82,16.9,29.273Zm17.58-90.169-16.9,29.273-17.239,29.86-16.9-29.273,17.24-29.86Zm-34.82-.588-16.9,29.272-16.9-29.272L505.9,362.3h33.8Zm17.24-31.039h-33.8l-17.24-29.86,9.5-16.453,7.4-12.819,16.9,29.273Zm17.58-90.169-16.9,29.273-17.239,29.86-16.9-29.273,17.24-29.86Zm-34.82-.588-16.9,29.272-16.9-29.272L505.9,240.5h33.8Zm17.24-31.039h-33.8l-17.24-29.86,9.5-16.453,7.4-12.819,16.9,29.273Zm17.58-90.169-16.9,29.273-17.239,29.86-16.9-29.273,17.24-29.86Zm-34.82-.588-16.9,29.272-16.9-29.272-17.24-29.86h33.8Z" transform="translate(0)"/></g></svg>