<svg xmlns="http://www.w3.org/2000/svg" width="33.941" height="33.941" viewBox="0 0 33.941 33.941"><defs><style>.a{fill:#31bed7;}</style></defs><path class="a" d="M22.364,9.818H14.182V1.636A1.637,1.637,0,0,0,12.545,0H11.455A1.637,1.637,0,0,0,9.818,1.636V9.818H1.636A1.637,1.637,0,0,0,0,11.455v1.091a1.637,1.637,0,0,0,1.636,1.636H9.818v8.182A1.637,1.637,0,0,0,11.455,24h1.091a1.637,1.637,0,0,0,1.636-1.636V14.182h8.182A1.637,1.637,0,0,0,24,12.545V11.455A1.637,1.637,0,0,0,22.364,9.818Z" transform="translate(0 16.971) rotate(-45)"/></svg>