<svg xmlns="http://www.w3.org/2000/svg" width="41.134" height="41.013" viewBox="0 0 41.134 41.013"><defs><style>.a{fill:#31bed7;}.b{fill:#fff;}</style></defs><g transform="translate(-870.523 -886.44)"><path class="a" d="M1505.946,1512.7a9.163,9.163,0,0,0-9.163,9.163c0,5.82,4.5,6.537,4.874,11.822a.755.755,0,0,0,.753.7h7.072a.755.755,0,0,0,.753-.7c.369-5.287,4.874-6.027,4.874-11.822A9.163,9.163,0,0,0,1505.946,1512.7Zm0,3.465a5.7,5.7,0,0,0-5.7,5.7.728.728,0,1,1-1.457,0,7.16,7.16,0,0,1,7.152-7.152.728.728,0,0,1,0,1.457Z" transform="translate(-614.856 -614.853)"/><rect class="a" width="8.529" height="1.777" rx="0.888" transform="translate(886.825 920.399)"/><rect class="a" width="8.529" height="1.777" rx="0.888" transform="translate(886.825 923.042)"/><path class="a" d="M1816.318,3042.89h3.2a1.776,1.776,0,0,0,1.777-1.776h-6.752A1.776,1.776,0,0,0,1816.318,3042.89Z" transform="translate(-926.827 -2115.437)"/><path class="a" d="M2780.768,1965.863h-4.628a.911.911,0,0,0,0,1.821h4.628a.911.911,0,1,0,0-1.821Z" transform="translate(-1870.022 -1059.767)"/><path class="a" d="M2534.421,1207.691a.907.907,0,0,0,.644-.267l3.272-3.272a.91.91,0,0,0-1.288-1.288l-3.272,3.272a.911.911,0,0,0,.644,1.554Z" transform="translate(-1632.705 -310.401)"/><path class="a" d="M1950.86,892.889a.911.911,0,0,0,.91-.911V887.35a.911.911,0,0,0-1.821,0v4.628A.911.911,0,0,0,1950.86,892.889Z" transform="translate(-1059.77)"/><path class="a" d="M1188.234,1202.861a.911.911,0,0,0-1.288,1.288l3.272,3.272a.911.911,0,0,0,1.288-1.288Z" transform="translate(-310.4 -310.398)"/><path class="a" d="M876.972,1966.773a.911.911,0,0,0-.91-.91h-4.628a.911.911,0,0,0,0,1.821h4.628A.911.911,0,0,0,876.972,1966.773Z" transform="translate(0 -1059.767)"/><path class="a" d="M1190.219,2549.694l-3.272,3.272a.911.911,0,0,0,1.288,1.288l3.272-3.272a.911.911,0,0,0-1.288-1.288Z" transform="translate(-310.4 -1632.704)"/><path class="a" d="M2535.065,2549.694a.911.911,0,0,0-1.288,1.288l3.272,3.272a.911.911,0,0,0,1.288-1.288Z" transform="translate(-1632.705 -1632.704)"/><path class="b" d="M1614.4,1622.99a7.16,7.16,0,0,0-7.152,7.152.728.728,0,1,0,1.457,0,5.7,5.7,0,0,1,5.7-5.7.728.728,0,1,0,0-1.457Z" transform="translate(-723.305 -723.137)"/></g></svg>