<svg xmlns="http://www.w3.org/2000/svg" width="38" height="38" viewBox="0 0 38 38"><defs><style>.a{fill:#31bed7;}.b{fill:#fff;}</style></defs><g transform="translate(-109.867 -49.867)"><circle class="a" cx="19" cy="19" r="19" transform="translate(109.867 49.867)"/><g transform="translate(118.668 58.928)"><path class="b" d="M194.115,116.249H183.923a.645.645,0,0,0-.6.68v.84a.645.645,0,0,0,.6.68h10.192a.645.645,0,0,0,.6-.68v-.84A.645.645,0,0,0,194.115,116.249Z" transform="translate(-174.32 -116.249)"/><path class="b" d="M194.115,149.043H183.923a.645.645,0,0,0-.6.68v.84a.645.645,0,0,0,.6.68h10.192a.645.645,0,0,0,.6-.68v-.84A.645.645,0,0,0,194.115,149.043Z" transform="translate(-174.32 -144.624)"/><path class="b" d="M194.115,181.838H174.923a.645.645,0,0,0-.6.68v.84a.645.645,0,0,0,.6.68h19.192a.645.645,0,0,0,.6-.68v-.84A.645.645,0,0,0,194.115,181.838Z" transform="translate(-174.32 -172.999)"/><path class="b" d="M194.115,214.633H174.923a.645.645,0,0,0-.6.68v.84a.645.645,0,0,0,.6.68h19.192a.645.645,0,0,0,.6-.68v-.84A.645.645,0,0,0,194.115,214.633Z" transform="translate(-174.32 -201.374)"/><path class="b" d="M194.115,247.428H174.923a.645.645,0,0,0-.6.68v.84a.645.645,0,0,0,.6.68h19.192a.645.645,0,0,0,.6-.68v-.84A.645.645,0,0,0,194.115,247.428Z" transform="translate(-174.32 -229.75)"/><path class="b" d="M1.494,0l.432-1.179v.018H4.4v-.018L4.851,0H6.309L3.843-6.3H2.484L.054,0ZM3.168-4.824,4.005-2.3H2.3Z" transform="translate(0.199 5.939)"/></g></g></svg>