<svg xmlns="http://www.w3.org/2000/svg" width="36" height="36" viewBox="0 0 36 36"><defs><style>.a{fill:#31bed7;}.b{fill:#fff;}</style></defs><g transform="translate(-5743.724 -677.798)"><circle class="a" cx="18" cy="18" r="18" transform="translate(5743.724 677.798)"/><g transform="translate(5500.026 489.396)"><path class="b" d="M284.393,198.85a2.728,2.728,0,0,1,2.7-2.737,2.688,2.688,0,0,1,2.712,2.725,2.723,2.723,0,0,1-2.662,2.75A2.763,2.763,0,0,1,284.393,198.85Z" transform="translate(-24.717)"/><path class="b" d="M266.268,278.835a1.327,1.327,0,0,1-.339.64,5.053,5.053,0,0,1-3.616,1.645,8.153,8.153,0,0,1-1.921-.1,2.842,2.842,0,0,1-2.3-3.365c.314-1.971.665-3.918,1-5.877.1-.59.226-1.18.3-1.771a1.892,1.892,0,0,0-.025-.653.7.7,0,0,0-.665-.64,5.078,5.078,0,0,1-.628-.063,2.441,2.441,0,0,1-.741-.314.549.549,0,0,1,.126-.954,1.573,1.573,0,0,1,.678-.151c.892-.013,1.8,0,2.675,0h2.675a.966.966,0,0,1,1.055.967,5.83,5.83,0,0,1-.251,1.859c-.326,1.846-.678,3.679-1,5.512-.113.628-.226,1.256-.326,1.9a3.078,3.078,0,0,0,0,.59.963.963,0,0,0,1.356.917,3.669,3.669,0,0,0,.678-.314c.213-.1.427-.239.653-.327C266.042,278.182,266.356,278.433,266.268,278.835Z" transform="translate(0 -64.439)"/></g></g></svg>