<svg xmlns="http://www.w3.org/2000/svg" width="33.617" height="33.616" viewBox="0 0 33.617 33.616"><defs><style>.a{fill:#31bed7;}</style></defs><g transform="translate(-32 -31.972)"><path class="a" d="M59.011,34.375a6.536,6.536,0,0,0-2.377.441,9.523,9.523,0,0,1,1.432,3,.6.6,0,1,1-1.153.335l0-.016A8.4,8.4,0,0,0,42.86,34.441a7.8,7.8,0,0,1,3.546,6.536.6.6,0,1,1-1.2,0,6.6,6.6,0,1,0-7.936,6.468.6.6,0,0,1,.471.488l1.97,11.652h3.65l-.554-7.76h0c0-.014,0-.028,0-.043A.6.6,0,0,1,44,51.74h0l.56,7.846h3.643v-6.6a.6.6,0,0,1,1.2,0v6.6H53.05l.56-7.846h0a.6.6,0,0,1,1.2.043c0,.014,0,.029,0,.043h0l-.554,7.761H57.9l1.97-11.652a.6.6,0,0,1,.471-.488,6.6,6.6,0,0,0-1.333-13.071Z" transform="translate(0)"/><path class="a" d="M136,416h18.007v4.8H136Z" transform="translate(-96.197 -355.214)"/></g></svg>