<svg xmlns="http://www.w3.org/2000/svg" width="36" height="36" viewBox="0 0 36 36"><defs><style>.a{fill:#31bed7;}.b{fill:#fff;}</style></defs><g transform="translate(-5743.725 -677.798)"><circle class="a" cx="18" cy="18" r="18" transform="translate(5743.725 677.798)"/><g transform="translate(5742.922 677.098)"><path class="b" d="M28.6,9.061H18.4a.645.645,0,0,0-.6.68v.84a.645.645,0,0,0,.6.68H28.6a.645.645,0,0,0,.6-.68v-.84A.645.645,0,0,0,28.6,9.061Z"/><path class="b" d="M28.6,13.48H18.4a.645.645,0,0,0-.6.68V15a.645.645,0,0,0,.6.68H28.6a.645.645,0,0,0,.6-.68v-.84A.645.645,0,0,0,28.6,13.48Z"/><path class="b" d="M28.6,17.9H9.4a.645.645,0,0,0-.6.68v.84a.645.645,0,0,0,.6.68H28.6a.645.645,0,0,0,.6-.68v-.84A.645.645,0,0,0,28.6,17.9Z"/><path class="b" d="M28.6,22.32H9.4a.645.645,0,0,0-.6.68v.84a.645.645,0,0,0,.6.68H28.6a.645.645,0,0,0,.6-.68V23A.645.645,0,0,0,28.6,22.32Z"/><path class="b" d="M28.6,26.739H9.4a.645.645,0,0,0-.6.68v.84a.645.645,0,0,0,.6.68H28.6a.645.645,0,0,0,.6-.68v-.84A.645.645,0,0,0,28.6,26.739Z"/><path class="b" d="M10.494,15l.432-1.179v.018H13.4v-.018L13.851,15h1.458L12.843,8.7H11.484L9.054,15Zm1.674-4.824.837,2.524H11.3Z"/></g></g></svg>