<svg xmlns="http://www.w3.org/2000/svg" width="38" height="38" viewBox="0 0 38 38"><defs><style>.a{fill:#31bed7;}.b{fill:#fff;}</style></defs><g transform="translate(-29.617 -29.78)"><circle class="a" cx="19" cy="19" r="19" transform="translate(29.617 29.78)"/><g transform="translate(-0.225 -0.034)"><path class="b" d="M49.623,33.54a4.264,4.264,0,0,0-1.551.288,6.213,6.213,0,0,1,.934,1.958.392.392,0,1,1-.752.219l0-.01a5.483,5.483,0,0,0-9.166-2.411A5.091,5.091,0,0,1,41.4,37.848a.392.392,0,0,1-.783,0,4.308,4.308,0,1,0-5.178,4.22.392.392,0,0,1,.307.318l1.285,7.6h2.381l-.362-5.063h0c0-.009,0-.018,0-.028a.392.392,0,0,1,.782-.028h0l.366,5.119h2.377V45.68a.392.392,0,1,1,.783,0v4.308h2.377l.366-5.119h0a.392.392,0,0,1,.782.028c0,.009,0,.019,0,.028h0l-.362,5.063H48.9l1.285-7.6a.392.392,0,0,1,.307-.318,4.308,4.308,0,0,0-.87-8.528Z" transform="translate(5.842 5.842)"/><path class="b" d="M136,416h11.749v3.133H136Z" transform="translate(-93.066 -359.387)"/></g></g></svg>