<svg xmlns="http://www.w3.org/2000/svg" width="22" height="20.291" viewBox="0 0 22 20.291"><defs><style>.a{fill:#fff;}</style></defs><g transform="translate(0 -9.633)"><path class="a" d="M20.448,14.322H17.984V10.3a.665.665,0,0,0-.665-.665H4.681a.665.665,0,0,0-.665.665v4.023H1.552A1.554,1.554,0,0,0,0,15.874v8.534A1.554,1.554,0,0,0,1.552,25.96H4.016v3.3a.665.665,0,0,0,.665.665H17.319a.665.665,0,0,0,.665-.665v-3.3h2.464A1.554,1.554,0,0,0,22,24.408V15.874A1.554,1.554,0,0,0,20.448,14.322Zm-15.1-3.358H16.653v3.358H5.347ZM16.653,28.594H5.347V22H16.653Zm4.016-4.186a.225.225,0,0,1-.222.222H17.984v-3.3a.665.665,0,0,0-.665-.665H4.681a.665.665,0,0,0-.665.665v3.3H1.552a.225.225,0,0,1-.222-.222V15.874a.225.225,0,0,1,.222-.222h18.9a.225.225,0,0,1,.222.222v8.534Z" transform="translate(0 0)"/><circle class="a" cx="0.967" cy="0.967" r="0.967" transform="translate(16.339 17.195)"/><path class="a" d="M89.27,163.822H83.087a.68.68,0,0,0,0,1.359H89.27a.68.68,0,0,0,0-1.359Z" transform="translate(-75.178 -140.535)"/><path class="a" d="M89.27,193.623H83.087a.68.68,0,0,0,0,1.359H89.27a.68.68,0,0,0,0-1.359Z" transform="translate(-75.178 -167.758)"/></g></svg>